# xmcd CD database file
#
# Track frame offsets:
#	150
#	38048
#	70689
#	105012
#	132815
#	164541
#	202645
#	235925
#
# Disc length: 3287 seconds
#
# Revision: 0
# Processed by: cddbd v1.5PL3 Copyright (c) Steve Scherf et al.
# Submitted via: CDex 1.51
#
DISCID=570cd508
DTITLE=Thomas Stabenow - What's New
DYEAR=1996
DGENRE=Jazz
TTITLE0=What's New
TTITLE1=Et Altera Pars
TTITLE2=Penelope
TTITLE3=Spring's Eternal
TTITLE4=How Deep Is The Ocean
TTITLE5=Yesterdays
TTITLE6=A Flower Is A Lovesome Thing
TTITLE7=What Is This Thing Called Love
EXTD=YEAR: 1996
EXTT0=
EXTT1=
EXTT2=
EXTT3=
EXTT4=
EXTT5=
EXTT6=
EXTT7=
PLAYORDER=
